# Blender v2.77 (sub 0) OBJ File: 'house.blend'
# www.blender.org
mtllib house.mtl
o Cube.001
v -2.000000 2.000000 3.000000
v -2.000000 2.000000 -3.000000
v 2.000000 2.000000 -3.000000
v 2.000000 2.000000 3.000000
v 0.000000 4.000000 3.000000
v 0.000000 4.000000 -3.000000
v 0.000000 4.000000 -3.000000
v 0.000000 4.000000 3.000000
v 0.337045 3.428405 -1.068016
v 0.337045 3.428405 -1.268016
v 0.537045 3.428405 -1.268016
v 0.537045 3.428405 -1.068016
v 0.337045 4.328403 -1.068016
v 0.337045 4.328403 -1.268016
v 0.537045 4.328403 -1.268016
v 0.537045 4.328403 -1.068016
v 2.000000 0.000000 -3.000000
v 2.000000 0.000000 3.000000
v -2.000000 0.000000 3.000000
v -1.999999 0.000000 -3.000001
v 2.000001 2.000000 -2.999998
v 1.999999 2.000000 3.000002
v -2.000001 2.000000 2.999999
v -2.000000 2.000000 -3.000000
vt 0.9337 0.6226
vt 0.4671 0.8426
vt 0.4671 0.6226
vt 0.6186 0.8429
vt 0.7755 0.9998
vt 0.4671 0.9998
vt 0.0002 0.8426
vt 0.4667 0.6226
vt 0.4667 0.8426
vt 0.3153 0.9998
vt 0.1584 0.8429
vt 0.4667 0.8429
vt 0.7937 0.0702
vt 0.8093 0.0002
vt 0.8093 0.0702
vt 0.7782 0.0702
vt 0.7937 0.0002
vt 0.8248 0.0702
vt 0.8404 0.0002
vt 0.8404 0.0702
vt 0.8248 0.0002
vt 0.7937 0.0857
vt 0.8093 0.0857
vt 0.1557 0.4667
vt 0.6223 0.1557
vt 0.6223 0.4667
vt 0.6223 0.6223
vt 0.0002 0.4667
vt 0.1557 0.1557
vt 0.6223 0.0002
vt 0.7778 0.1557
vt 0.7778 0.4667
vt 0.9337 0.8426
vt 0.6213 0.8456
vt 0.0002 0.6226
vt 0.3126 0.9971
vt 0.7782 0.0002
vt 0.1557 0.6223
vt 0.0002 0.1557
vt 0.1557 0.0002
vn -0.7071 0.7071 0.0000
vn 0.0000 0.0000 -1.0000
vn 0.7071 0.7071 0.0000
vn 0.0000 0.0000 1.0000
vn -1.0000 0.0000 0.0000
vn 1.0000 0.0000 0.0000
vn 0.0000 1.0000 0.0000
vn 0.0000 -1.0000 0.0000
usemtl Material.004
s off
f 6/1/1 1/2/1 5/3/1
f 6/4/2 3/5/2 2/6/2
f 8/7/3 3/8/3 7/9/3
f 8/10/4 1/11/4 4/12/4
f 14/13/5 9/14/5 13/15/5
f 15/16/2 10/17/2 14/13/2
f 16/18/6 11/19/6 15/20/6
f 13/15/4 12/21/4 16/18/4
f 15/22/7 13/15/7 16/23/7
f 18/24/8 20/25/8 17/26/8
f 21/27/6 18/24/6 17/26/6
f 22/28/4 19/29/4 18/24/4
f 19/29/5 24/30/5 20/25/5
f 17/26/2 24/31/2 21/32/2
f 6/1/1 2/33/1 1/2/1
f 6/4/4 7/34/4 3/5/4
f 8/7/3 4/35/3 3/8/3
f 8/10/4 5/36/4 1/11/4
f 14/13/5 10/17/5 9/14/5
f 15/16/2 11/37/2 10/17/2
f 16/18/6 12/21/6 11/19/6
f 13/15/4 9/14/4 12/21/4
f 15/22/7 14/13/7 13/15/7
f 18/24/8 19/29/8 20/25/8
f 21/27/6 22/38/6 18/24/6
f 22/28/4 23/39/4 19/29/4
f 19/29/5 23/40/5 24/30/5
f 17/26/2 20/25/2 24/31/2
